<?xml version="1.0" encoding="UTF-8" standalone="no"?>
<svg
   xmlns:dc="http://purl.org/dc/elements/1.1/"
   xmlns:cc="http://creativecommons.org/ns#"
   xmlns:rdf="http://www.w3.org/1999/02/22-rdf-syntax-ns#"
   xmlns:svg="http://www.w3.org/2000/svg"
   xmlns="http://www.w3.org/2000/svg"
   xmlns:xlink="http://www.w3.org/1999/xlink"
   xmlns:sodipodi="http://sodipodi.sourceforge.net/DTD/sodipodi-0.dtd"
   xmlns:inkscape="http://www.inkscape.org/namespaces/inkscape"
   width="128"
   height="128"
   viewBox="0 0 128 128"
   version="1.1"
   id="svg60"
   sodipodi:docname="favicon.svg"
   inkscape:version="1.0.1 (3bc2e813f5, 2020-09-07)"
   inkscape:export-filename="C:\Users\chauh\Desktop\Development\Scripts\HTML\compSciFRQ\favicon.png"
   inkscape:export-xdpi="384"
   inkscape:export-ydpi="384">
  <metadata
     id="metadata64">
    <rdf:RDF>
      <cc:Work
         rdf:about="">
        <dc:format>image/svg+xml</dc:format>
        <dc:type
           rdf:resource="http://purl.org/dc/dcmitype/StillImage" />
        <dc:title></dc:title>
      </cc:Work>
    </rdf:RDF>
  </metadata>
  <sodipodi:namedview
     pagecolor="#ffffff"
     bordercolor="#666666"
     borderopacity="1"
     objecttolerance="10"
     gridtolerance="10"
     guidetolerance="10"
     inkscape:pageopacity="0"
     inkscape:pageshadow="2"
     inkscape:window-width="1920"
     inkscape:window-height="1017"
     id="namedview62"
     showgrid="false"
     showguides="false"
     inkscape:zoom="4"
     inkscape:cx="81.620772"
     inkscape:cy="48.724032"
     inkscape:window-x="-8"
     inkscape:window-y="-8"
     inkscape:window-maximized="1"
     inkscape:current-layer="svg60"
     inkscape:document-rotation="0" />
  <defs
     id="defs40">
    <circle
       id="b"
       cx="64"
       cy="64"
       r="56" />
    <filter
       x="-7.1%"
       y="-5.4%"
       width="114.3%"
       height="114.3%"
       filterUnits="objectBoundingBox"
       id="a">
      <feMorphology
         radius="1"
         operator="dilate"
         in="SourceAlpha"
         result="shadowSpreadOuter1"
         id="feMorphology3" />
      <feOffset
         dy="2"
         in="shadowSpreadOuter1"
         result="shadowOffsetOuter1"
         id="feOffset5" />
      <feGaussianBlur
         stdDeviation="2"
         in="shadowOffsetOuter1"
         result="shadowBlurOuter1"
         id="feGaussianBlur7" />
      <feComposite
         in="shadowBlurOuter1"
         in2="SourceAlpha"
         operator="out"
         result="shadowBlurOuter1"
         id="feComposite9" />
      <feColorMatrix
         values="0 0 0 0 0 0 0 0 0 0 0 0 0 0 0 0 0 0 0.240942029 0"
         in="shadowBlurOuter1"
         id="feColorMatrix11" />
    </filter>
    <linearGradient
       x1="50%"
       y1="0%"
       x2="50%"
       y2="100%"
       id="c">
      <stop
         stop-color="#FEFEFE"
         offset="0%"
         id="stop14" />
      <stop
         stop-color="#E0E0E0"
         offset="100%"
         id="stop16" />
    </linearGradient>
    <circle
       id="d"
       cx="64"
       cy="63"
       r="52" />
    <linearGradient
       x1="50%"
       y1="100%"
       x2="50%"
       y2="0%"
       id="g">
      <stop
         stop-color="#492779"
         offset="0%"
         id="stop20"
         style="stop-color:#73c266;stop-opacity:1" />
      <stop
         stop-color="#892793"
         offset="100%"
         id="stop22"
         style="stop-color:#029bde;stop-opacity:1" />
    </linearGradient>
    <path
       d="M12 64.034c0 23.025 14.885 42.472 35.555 49.367 2.6.456 3.575-1.105 3.575-2.47 0-1.237-.065-5.334-.065-9.692C38 103.644 34.62 98.05 33.58 95.124c-.585-1.496-3.12-6.114-5.33-7.35-1.82-.976-4.42-3.382-.065-3.447 4.095-.065 7.02 3.772 7.995 5.333 4.68 7.87 12.155 5.66 15.145 4.293.455-3.382 1.82-5.66 3.315-6.96-11.57-1.3-23.66-5.788-23.66-25.69 0-5.66 2.015-10.343 5.33-13.985-.52-1.3-2.34-6.634.52-13.79 0 0 4.355-1.365 14.3 5.334 4.16-1.17 8.58-1.756 13-1.756s8.84.586 13 1.756c9.945-6.764 14.3-5.333 14.3-5.333 2.86 7.154 1.04 12.487.52 13.788 3.315 3.642 5.33 8.26 5.33 13.984 0 19.968-12.155 24.39-23.725 25.692 1.885 1.626 3.51 4.748 3.51 9.626 0 6.96-.065 12.553-.065 14.31 0 1.365.975 2.99 3.575 2.47C101.115 106.507 116 86.995 116 64.035 116 35.284 92.73 12 64 12S12 35.285 12 64.034z"
       id="e" />
    <filter
       x="-.5%"
       y="-.5%"
       width="101%"
       height="102%"
       filterUnits="objectBoundingBox"
       id="f">
      <feOffset
         dy="1"
         in="SourceAlpha"
         result="shadowOffsetOuter1"
         id="feOffset26" />
      <feColorMatrix
         values="0 0 0 0 1 0 0 0 0 1 0 0 0 0 1 0 0 0 0.529296875 0"
         in="shadowOffsetOuter1"
         id="feColorMatrix28" />
    </filter>
    <filter
       x="-1%"
       y="-1%"
       width="101.9%"
       height="103%"
       filterUnits="objectBoundingBox"
       id="h">
      <feGaussianBlur
         stdDeviation="1"
         in="SourceAlpha"
         result="shadowBlurInner1"
         id="feGaussianBlur31" />
      <feOffset
         in="shadowBlurInner1"
         result="shadowOffsetInner1"
         id="feOffset33" />
      <feComposite
         in="shadowOffsetInner1"
         in2="SourceAlpha"
         operator="arithmetic"
         k2="-1"
         k3="1"
         result="shadowInnerInner1"
         id="feComposite35" />
      <feColorMatrix
         values="0 0 0 0 0.258823529 0 0 0 0 0.137254902 0 0 0 0 0.431372549 0 0 0 0.703549592 0"
         in="shadowInnerInner1"
         id="feColorMatrix37" />
    </filter>
    <linearGradient
       inkscape:collect="always"
       xlink:href="#g"
       id="linearGradient939"
       gradientUnits="userSpaceOnUse"
       x1="64.000031"
       y1="114.94543"
       x2="64.423058"
       y2="64.976517"
       gradientTransform="matrix(1.2536606,0,0,1.2536606,-16.234279,-16.234279)" />
  </defs>
  <circle
     style="fill:url(#linearGradient939);fill-opacity:1;stroke-width:19.3298;stroke-linecap:round;paint-order:stroke markers fill;stop-color:#000000"
     id="circle937"
     cx="64"
     cy="64"
     r="64" />
  <path
     id="circle895"
     style="fill:#ffffff;fill-opacity:1;stroke-width:15.4636;stroke-linecap:round;paint-order:stroke markers fill;stop-color:#000000"
     d="M 63.601562,12.652344 C 35.563026,12.872579 12.948847,35.797186 12.949219,64 c 1.71e-4,13.012484 4.839619,24.996077 12.890891,34.108776 4.025637,4.556354 8.854229,8.394974 14.282347,11.285624 2.714059,1.44533 5.577999,2.65366 8.566391,3.59622 8.100322,1.55835 9.313105,1.96949 9.313105,-3.3373 v -5.33887 -5.338863 c 0,-5.326017 -0.0089,-5.338868 -5.40332,-5.338868 h -5.403321 -10.80664 c -5.703922,0 -10.250002,-4.816643 -10.25,-10.494141 V 44.857422 c 0,-5.67857 4.547053,-10.494141 10.25,-10.494141 h 55.222656 c 5.686268,0 10.250002,4.798534 10.250002,10.494141 v 38.285156 c 0,5.677494 -4.546082,10.494137 -10.250002,10.494141 h -10.806641 -5.40332 c -5.423772,-0.123551 -5.40332,-0.09131 -5.40332,5.338868 v 5.338863 5.33887 c 0,4.8895 3.455913,5.16186 9.313105,3.3373 2.988392,-0.94256 5.852332,-2.15089 8.566391,-3.59622 5.428117,-2.89065 10.25671,-6.72927 14.282347,-11.285624 C 110.21116,88.996076 115.05061,77.012483 115.05078,64 115.05029,35.641416 92.194259,12.652466 64,12.652344 c -0.132812,-5.21e-4 -0.265626,-5.21e-4 -0.398438,0 z m -27.21289,29.939453 c -1.148231,0 -2.021484,0.783563 -2.021484,2.265625 v 38.285156 c -10e-7,1.424768 0.936037,2.265625 2.021484,2.265625 H 64 91.611328 c 1.08544,0 2.021484,-0.840858 2.021484,-2.265625 V 44.857422 c 0,-1.442458 -0.943194,-2.265625 -2.021484,-2.265625 z m 29.421875,1.582031 c 0.02798,-0.0012 0.056,-0.0012 0.08398,0 0.0026,-1e-5 0.0052,-1e-5 0.0078,0 0.0078,6e-4 0.01564,0.0012 0.02344,0.002 0.02024,0.0014 0.04043,0.0033 0.06055,0.0059 0.02553,0.0029 0.05094,0.0068 0.07617,0.01172 l 0.0078,0.002 4.091797,0.833985 c 0.543761,0.111522 0.892674,0.644534 0.777344,1.1875 l -7.822265,36.818359 c -0.114386,0.537664 -0.641262,0.882227 -1.179688,0.771485 l -4.099609,-0.835938 c -0.543761,-0.111522 -0.892674,-0.644534 -0.777344,-1.1875 l 7.822265,-36.818359 c 0.0035,-0.01571 0.0074,-0.03135 0.01172,-0.04687 7e-4,-0.0026 0.0013,-0.0052 0.002,-0.0078 0.0069,-0.02438 0.01474,-0.04848 0.02344,-0.07227 7e-4,-0.0026 0.0013,-0.0052 0.002,-0.0078 0.0061,-0.01578 0.01263,-0.03142 0.01953,-0.04687 0.0044,-0.0098 0.009,-0.0196 0.01367,-0.0293 0.0013,-0.0033 0.0026,-0.0066 0.0039,-0.0098 0.01089,-0.02257 0.02261,-0.04472 0.03516,-0.06641 0.0122,-0.02197 0.02523,-0.04346 0.03906,-0.06445 0.002,-0.0026 0.0039,-0.0052 0.0059,-0.0078 0.01421,-0.02074 0.02919,-0.04094 0.04492,-0.06055 0.0013,-0.002 0.0026,-0.004 0.0039,-0.0059 0.01138,-0.01332 0.0231,-0.02635 0.03516,-0.03906 0.0064,-0.0072 0.01293,-0.01438 0.01953,-0.02148 0.01815,-0.01897 0.03705,-0.03721 0.05664,-0.05469 0.002,-0.002 0.0039,-0.004 0.0059,-0.0059 0.01958,-0.01639 0.03978,-0.03202 0.06055,-0.04687 0.02213,-0.01656 0.04494,-0.0322 0.06836,-0.04687 0.0026,-0.002 0.0052,-0.004 0.0078,-0.0059 0.01159,-0.0067 0.02331,-0.01323 0.03516,-0.01953 0.01223,-0.0068 0.0246,-0.01323 0.03711,-0.01953 0.02553,-0.01283 0.0516,-0.02456 0.07813,-0.03516 0.02311,-0.0093 0.04656,-0.01779 0.07031,-0.02539 0.0026,-7e-4 0.0052,-0.0013 0.0078,-0.002 0.03339,-0.01023 0.06729,-0.01869 0.101563,-0.02539 0.02072,-0.0039 0.04157,-0.0072 0.0625,-0.0098 0.02528,-0.0036 0.05069,-0.0062 0.07617,-0.0078 z m -10.205078,5.396484 c 0.562908,-0.01534 1.027496,0.436884 1.027343,1 v 5.919922 c -5e-5,0.265199 -0.105432,0.51952 -0.292968,0.707032 -8.18387,8.183821 -8.563598,5.167281 -0.002,13.583984 0.188252,0.187192 0.294353,0.441552 0.294921,0.707031 v 5.919922 c 0.0014,0.891579 -1.07637,1.339208 -1.707031,0.708985 L 41.496094,64.707031 c -0.390368,-0.39053 -0.390368,-1.023532 0,-1.414062 L 54.925781,49.863281 c 0.18076,-0.180983 0.423996,-0.285868 0.679688,-0.292969 z m 16.791015,0 c 0.25501,0.0076 0.497461,0.112443 0.677735,0.292969 l 13.429687,13.429688 c 0.390368,0.39053 0.390368,1.023532 0,1.414062 L 73.074219,78.117188 c -0.630661,0.630223 -1.708432,0.182594 -1.707031,-0.708985 v -5.919922 c 5.69e-4,-0.265479 0.106669,-0.519839 0.294921,-0.707031 8.196696,-8.173202 8.548222,-5.148981 -0.002,-13.583984 -0.187536,-0.187512 -0.292918,-0.441833 -0.292968,-0.707032 v -5.919922 c -1.85e-4,-0.563905 0.46563,-1.01646 1.029296,-1 z"
     sodipodi:nodetypes="csssccccccssssssssccccccsscccsscscsssssccccccccccccccccccccccccccccccccccccccccccccccccccccccccccccccccc" />
  <g
     id="g983">
    <g
       id="g970"
       style="opacity:1" />
    <g
       id="g961"
       style="opacity:1" />
  </g>
</svg>
